<svg xmlns="http://www.w3.org/2000/svg" xmlns:xlink="http://www.w3.org/1999/xlink" width="500" zoomAndPan="magnify" viewBox="0 0 375 374.999991" height="500" preserveAspectRatio="xMidYMid meet" version="1.0"><defs><clipPath id="38cf04b7b5"><path d="M 129 118.703125 L 245 118.703125 L 245 255.953125 L 129 255.953125 Z M 129 118.703125 " clip-rule="nonzero"/></clipPath></defs><g clip-path="url(#38cf04b7b5)"><path fill="#74b9ff" d="M 187.355469 118.914062 C 185.921875 118.914062 184.488281 118.96875 183.058594 119.078125 C 181.628906 119.183594 180.207031 119.347656 178.789062 119.5625 C 177.371094 119.777344 175.964844 120.042969 174.566406 120.363281 C 173.167969 120.683594 171.785156 121.054688 170.414062 121.480469 C 169.046875 121.902344 167.691406 122.378906 166.359375 122.902344 C 165.023438 123.425781 163.710938 124 162.421875 124.625 C 161.128906 125.246094 159.863281 125.917969 158.621094 126.636719 C 157.378906 127.355469 156.167969 128.117188 154.984375 128.925781 C 153.800781 129.734375 152.648438 130.585938 151.527344 131.480469 C 150.40625 132.375 149.320312 133.308594 148.269531 134.285156 C 147.21875 135.261719 146.207031 136.277344 145.234375 137.328125 C 144.257812 138.378906 143.324219 139.464844 142.433594 140.585938 C 141.539062 141.710938 140.6875 142.863281 139.882812 144.046875 C 139.074219 145.234375 138.3125 146.445312 137.597656 147.6875 C 136.878906 148.929688 136.210938 150.199219 135.589844 151.492188 C 134.96875 152.78125 134.398438 154.097656 133.875 155.429688 C 133.351562 156.765625 132.878906 158.121094 132.457031 159.488281 C 132.035156 160.859375 131.664062 162.246094 131.347656 163.640625 C 131.027344 165.039062 130.761719 166.449219 130.550781 167.867188 C 130.335938 169.285156 130.179688 170.707031 130.070312 172.136719 C 129.964844 173.566406 129.914062 175 129.914062 176.433594 C 129.914062 177.867188 129.96875 179.300781 130.074219 180.730469 C 130.183594 182.160156 130.34375 183.582031 130.558594 185 C 130.773438 186.417969 131.042969 187.824219 131.359375 189.222656 C 131.679688 190.621094 132.050781 192.003906 132.476562 193.375 C 132.898438 194.746094 133.371094 196.097656 133.898438 197.429688 C 134.421875 198.765625 134.996094 200.078125 135.617188 201.371094 C 136.242188 202.660156 136.910156 203.929688 137.628906 205.167969 C 138.34375 206.410156 139.109375 207.625 139.917969 208.808594 C 140.726562 209.992188 141.574219 211.144531 142.46875 212.265625 C 143.363281 213.386719 144.300781 214.472656 145.277344 215.523438 C 146.25 216.574219 147.265625 217.585938 148.316406 218.558594 L 185.390625 255.660156 C 185.945312 256.167969 186.597656 256.429688 187.347656 256.445312 C 188.140625 256.429688 188.839844 256.167969 189.449219 255.660156 L 225.9375 219.023438 C 227.007812 218.058594 228.042969 217.050781 229.039062 216.007812 C 230.035156 214.964844 230.992188 213.886719 231.90625 212.769531 C 232.820312 211.652344 233.691406 210.503906 234.519531 209.324219 C 235.347656 208.140625 236.132812 206.929688 236.867188 205.691406 C 237.605469 204.449219 238.296875 203.183594 238.9375 201.890625 C 239.578125 200.597656 240.171875 199.285156 240.714844 197.945312 C 241.253906 196.609375 241.746094 195.253906 242.1875 193.878906 C 242.628906 192.503906 243.015625 191.117188 243.351562 189.714844 C 243.6875 188.308594 243.96875 186.894531 244.199219 185.472656 C 244.425781 184.046875 244.601562 182.617188 244.722656 181.175781 C 244.84375 179.738281 244.914062 178.300781 244.925781 176.855469 C 244.9375 175.414062 244.894531 173.972656 244.800781 172.53125 C 244.703125 171.09375 244.554688 169.660156 244.351562 168.230469 C 244.144531 166.800781 243.886719 165.382812 243.578125 163.972656 C 243.265625 162.566406 242.902344 161.167969 242.488281 159.789062 C 242.070312 158.40625 241.601562 157.042969 241.085938 155.695312 C 240.566406 154.347656 239.996094 153.023438 239.378906 151.71875 C 238.757812 150.417969 238.09375 149.136719 237.378906 147.886719 C 236.664062 146.632812 235.902344 145.40625 235.09375 144.210938 C 234.285156 143.015625 233.433594 141.851562 232.539062 140.71875 C 231.644531 139.589844 230.707031 138.492188 229.730469 137.429688 C 228.753906 136.371094 227.738281 135.347656 226.679688 134.363281 C 225.625 133.378906 224.535156 132.433594 223.410156 131.53125 C 222.285156 130.628906 221.125 129.769531 219.933594 128.953125 C 218.746094 128.140625 217.523438 127.371094 216.277344 126.648438 C 215.027344 125.925781 213.753906 125.25 212.453125 124.621094 C 211.15625 123.996094 209.832031 123.417969 208.492188 122.890625 C 207.148438 122.363281 205.785156 121.886719 204.40625 121.460938 C 203.027344 121.035156 201.636719 120.664062 200.230469 120.34375 C 198.820312 120.023438 197.40625 119.757812 195.976562 119.542969 C 194.550781 119.328125 193.117188 119.171875 191.679688 119.066406 C 190.238281 118.960938 188.796875 118.910156 187.355469 118.914062 Z M 174.179688 212.105469 C 173.6875 212.097656 173.203125 212.042969 172.722656 211.941406 C 172.238281 211.839844 171.773438 211.691406 171.320312 211.5 C 170.871094 211.304688 170.441406 211.070312 170.035156 210.792969 C 169.628906 210.511719 169.257812 210.199219 168.914062 209.847656 C 168.570312 209.496094 168.261719 209.113281 167.992188 208.703125 C 167.726562 208.289062 167.5 207.855469 167.316406 207.402344 C 167.132812 206.945312 166.996094 206.476562 166.902344 205.992188 C 166.8125 205.507812 166.769531 205.019531 166.773438 204.53125 C 166.777344 204.039062 166.832031 203.550781 166.929688 203.070312 C 167.03125 202.589844 167.175781 202.121094 167.367188 201.667969 C 167.5625 201.21875 167.792969 200.789062 168.070312 200.378906 C 168.347656 199.972656 168.660156 199.597656 169.011719 199.253906 C 169.359375 198.90625 169.742188 198.601562 170.152344 198.328125 C 170.5625 198.058594 170.996094 197.832031 171.449219 197.644531 C 171.90625 197.460938 172.375 197.320312 172.855469 197.226562 C 173.339844 197.136719 173.828125 197.089844 174.320312 197.09375 C 174.808594 197.09375 175.296875 197.144531 175.777344 197.242188 C 176.261719 197.339844 176.726562 197.484375 177.179688 197.675781 C 177.632812 197.863281 178.066406 198.097656 178.472656 198.371094 C 178.878906 198.644531 179.257812 198.957031 179.605469 199.304688 C 179.949219 199.65625 180.261719 200.035156 180.53125 200.441406 C 180.804688 200.851562 181.035156 201.285156 181.222656 201.738281 C 181.410156 202.195312 181.550781 202.660156 181.644531 203.144531 C 181.742188 203.625 181.789062 204.113281 181.789062 204.605469 C 181.785156 205.101562 181.730469 205.589844 181.632812 206.078125 C 181.53125 206.5625 181.382812 207.035156 181.191406 207.492188 C 180.996094 207.945312 180.761719 208.378906 180.480469 208.789062 C 180.203125 209.199219 179.886719 209.582031 179.535156 209.929688 C 179.179688 210.277344 178.796875 210.585938 178.382812 210.859375 C 177.96875 211.132812 177.53125 211.363281 177.074219 211.550781 C 176.613281 211.734375 176.140625 211.875 175.652344 211.96875 C 175.167969 212.0625 174.675781 212.109375 174.179688 212.105469 Z M 199.902344 212.105469 C 199.410156 212.105469 198.921875 212.058594 198.4375 211.960938 C 197.953125 211.867188 197.484375 211.726562 197.027344 211.535156 C 196.574219 211.347656 196.140625 211.117188 195.730469 210.84375 C 195.320312 210.570312 194.941406 210.257812 194.589844 209.910156 C 194.242188 209.5625 193.929688 209.183594 193.65625 208.773438 C 193.382812 208.363281 193.152344 207.929688 192.960938 207.472656 C 192.773438 207.019531 192.628906 206.550781 192.535156 206.066406 C 192.4375 205.582031 192.390625 205.09375 192.390625 204.601562 C 192.390625 204.109375 192.4375 203.621094 192.535156 203.136719 C 192.628906 202.652344 192.773438 202.183594 192.960938 201.726562 C 193.148438 201.269531 193.378906 200.839844 193.65625 200.429688 C 193.929688 200.019531 194.238281 199.640625 194.589844 199.289062 C 194.9375 198.941406 195.316406 198.628906 195.726562 198.355469 C 196.136719 198.082031 196.570312 197.851562 197.023438 197.664062 C 197.480469 197.472656 197.949219 197.332031 198.433594 197.234375 C 198.917969 197.140625 199.40625 197.089844 199.898438 197.089844 C 200.390625 197.089844 200.878906 197.140625 201.363281 197.234375 C 201.847656 197.332031 202.316406 197.476562 202.773438 197.664062 C 203.226562 197.851562 203.660156 198.085938 204.070312 198.359375 C 204.480469 198.632812 204.859375 198.945312 205.207031 199.292969 C 205.554688 199.640625 205.867188 200.023438 206.140625 200.433594 C 206.414062 200.84375 206.644531 201.273438 206.835938 201.730469 C 207.023438 202.1875 207.164062 202.65625 207.261719 203.140625 C 207.355469 203.625 207.40625 204.113281 207.402344 204.605469 C 207.402344 205.097656 207.351562 205.582031 207.253906 206.066406 C 207.15625 206.546875 207.011719 207.011719 206.820312 207.46875 C 206.632812 207.921875 206.402344 208.351562 206.128906 208.761719 C 205.855469 209.167969 205.542969 209.546875 205.195312 209.894531 C 204.847656 210.242188 204.472656 210.550781 204.0625 210.824219 C 203.65625 211.101562 203.222656 211.332031 202.769531 211.519531 C 202.316406 211.710938 201.851562 211.855469 201.367188 211.953125 C 200.886719 212.050781 200.402344 212.101562 199.910156 212.105469 Z M 212.332031 167.441406 L 206.472656 189.386719 C 206.269531 190.105469 205.957031 190.769531 205.539062 191.386719 C 205.117188 192.003906 204.613281 192.539062 204.023438 192.992188 C 203.429688 193.445312 202.78125 193.792969 202.078125 194.035156 C 201.375 194.28125 200.648438 194.40625 199.902344 194.414062 L 174.179688 194.414062 C 173.433594 194.417969 172.710938 194.304688 172.007812 194.066406 C 171.300781 193.828125 170.652344 193.480469 170.0625 193.027344 C 169.472656 192.574219 168.972656 192.039062 168.5625 191.417969 C 168.152344 190.796875 167.855469 190.125 167.667969 189.40625 L 161.664062 167.441406 C 161.667969 167.398438 161.667969 167.355469 161.664062 167.308594 L 159.039062 157.597656 L 155.03125 157.597656 C 154.660156 157.578125 154.304688 157.492188 153.96875 157.339844 C 153.632812 157.183594 153.335938 156.972656 153.078125 156.707031 C 152.824219 156.4375 152.625 156.132812 152.488281 155.785156 C 152.351562 155.441406 152.28125 155.085938 152.28125 154.714844 C 152.28125 154.34375 152.351562 153.984375 152.488281 153.640625 C 152.625 153.296875 152.824219 152.992188 153.078125 152.722656 C 153.335938 152.453125 153.632812 152.242188 153.96875 152.089844 C 154.304688 151.9375 154.660156 151.851562 155.03125 151.832031 L 161.25 151.832031 C 161.5625 151.820312 161.863281 151.863281 162.160156 151.957031 C 162.453125 152.050781 162.726562 152.191406 162.972656 152.378906 C 163.21875 152.566406 163.425781 152.789062 163.59375 153.050781 C 163.761719 153.308594 163.882812 153.589844 163.953125 153.894531 L 166.613281 163.878906 L 209.566406 163.878906 C 210.007812 163.851562 210.429688 163.9375 210.824219 164.132812 C 211.222656 164.328125 211.542969 164.609375 211.792969 164.976562 C 212.089844 165.3125 212.289062 165.699219 212.386719 166.140625 C 212.484375 166.578125 212.464844 167.011719 212.335938 167.441406 Z M 212.332031 167.441406 " fill-opacity="1" fill-rule="nonzero"/></g></svg>